<svg width="1283" height="657" xmlns="http://www.w3.org/2000/svg"><g><path d="M-74,-123L-124,577L-48,284Z" fill="#c3f6d9" stroke="#c3f6d9" fill-opacity="1" stroke-opacity="1"/><path d="M-74,-123L-48,284L-22,96Z" fill="#efffda" stroke="#efffda" fill-opacity="1" stroke-opacity="1"/><path d="M-74,-123L-22,96L111,-52Z" fill="#ffffe2" stroke="#ffffe2" fill-opacity="1" stroke-opacity="1"/><path d="M-74,-123L111,-52L229,-60Z" fill="#f2fae2" stroke="#f2fae2" fill-opacity="1" stroke-opacity="1"/><path d="M-74,-123L229,-60L414,-101Z" fill="#e3f4df" stroke="#e3f4df" fill-opacity="1" stroke-opacity="1"/><path d="M-74,-123L414,-101L1088,-113Z" fill="#b9e4de" stroke="#b9e4de" fill-opacity="1" stroke-opacity="1"/><path d="M-74,-123L1088,-113L1286,-112Z" fill="#9acadc" stroke="#9acadc" fill-opacity="1" stroke-opacity="1"/><path d="M111,-52L-22,96L26,115Z" fill="#f0fdda" stroke="#f0fdda" fill-opacity="1" stroke-opacity="1"/><path d="M111,-52L26,115L105,170Z" fill="#e4fbd6" stroke="#e4fbd6" fill-opacity="1" stroke-opacity="1"/><path d="M111,-52L105,170L254,69Z" fill="#dcf6d4" stroke="#dcf6d4" fill-opacity="1" stroke-opacity="1"/><path d="M111,-52L254,69L229,-60Z" fill="#e2f4d9" stroke="#e2f4d9" fill-opacity="1" stroke-opacity="1"/><path d="M229,-60L254,69L421,33Z" fill="#d1eed3" stroke="#d1eed3" fill-opacity="1" stroke-opacity="1"/><path d="M229,-60L421,33L414,-101Z" fill="#cbebd8" stroke="#cbebd8" fill-opacity="1" stroke-opacity="1"/><path d="M414,-101L421,33L481,-67Z" fill="#bfe6db" stroke="#bfe6db" fill-opacity="1" stroke-opacity="1"/><path d="M414,-101L481,-67L690,-77Z" fill="#b1e1df" stroke="#b1e1df" fill-opacity="1" stroke-opacity="1"/><path d="M414,-101L690,-77L855,-84Z" fill="#a0d9e1" stroke="#a0d9e1" fill-opacity="1" stroke-opacity="1"/><path d="M414,-101L855,-84L1088,-113Z" fill="#99c7db" stroke="#99c7db" fill-opacity="1" stroke-opacity="1"/><path d="M481,-67L421,33L499,22Z" fill="#bae5d8" stroke="#bae5d8" fill-opacity="1" stroke-opacity="1"/><path d="M481,-67L499,22L690,-77Z" fill="#ade0dd" stroke="#ade0dd" fill-opacity="1" stroke-opacity="1"/><path d="M690,-77L499,22L627,107Z" fill="#a2ddd9" stroke="#a2ddd9" fill-opacity="1" stroke-opacity="1"/><path d="M690,-77L627,107L784,108Z" fill="#94d3d5" stroke="#94d3d5" fill-opacity="1" stroke-opacity="1"/><path d="M690,-77L784,108L855,-84Z" fill="#9ac8d7" stroke="#9ac8d7" fill-opacity="1" stroke-opacity="1"/><path d="M855,-84L784,108L964,70Z" fill="#8fbccf" stroke="#8fbccf" fill-opacity="1" stroke-opacity="1"/><path d="M855,-84L964,70L978,-41Z" fill="#92b3d1" stroke="#92b3d1" fill-opacity="1" stroke-opacity="1"/><path d="M855,-84L978,-41L1088,-113Z" fill="#90add3" stroke="#90add3" fill-opacity="1" stroke-opacity="1"/><path d="M978,-41L964,70L1183,107Z" fill="#84a4c6" stroke="#84a4c6" fill-opacity="1" stroke-opacity="1"/><path d="M978,-41L1183,107L1088,-113Z" fill="#8b9eca" stroke="#8b9eca" fill-opacity="1" stroke-opacity="1"/><path d="M1088,-113L1183,107L1286,-112Z" fill="#8690c7" stroke="#8690c7" fill-opacity="1" stroke-opacity="1"/><path d="M1286,-112L1183,107L1319,18Z" fill="#8186c0" stroke="#8186c0" fill-opacity="1" stroke-opacity="1"/><path d="M1286,-112L1319,18L1442,-107Z" fill="#8080c2" stroke="#8080c2" fill-opacity="1" stroke-opacity="1"/><path d="M1442,-107L1319,18L1477,68Z" fill="#8080bb" stroke="#8080bb" fill-opacity="1" stroke-opacity="1"/><path d="M-22,96L-48,284L26,115Z" fill="#dfffd2" stroke="#dfffd2" fill-opacity="1" stroke-opacity="1"/><path d="M26,115L-48,284L105,170Z" fill="#d3fbd2" stroke="#d3fbd2" fill-opacity="1" stroke-opacity="1"/><path d="M254,69L105,170L212,256Z" fill="#c3f4cb" stroke="#c3f4cb" fill-opacity="1" stroke-opacity="1"/><path d="M254,69L212,256L418,275Z" fill="#a8eac9" stroke="#a8eac9" fill-opacity="1" stroke-opacity="1"/><path d="M254,69L418,275L421,33Z" fill="#b2eaca" stroke="#b2eaca" fill-opacity="1" stroke-opacity="1"/><path d="M421,33L418,275L578,166Z" fill="#9be4ca" stroke="#9be4ca" fill-opacity="1" stroke-opacity="1"/><path d="M421,33L578,166L499,22Z" fill="#a8e3d2" stroke="#a8e3d2" fill-opacity="1" stroke-opacity="1"/><path d="M499,22L578,166L627,107Z" fill="#98dfd1" stroke="#98dfd1" fill-opacity="1" stroke-opacity="1"/><path d="M627,107L578,166L724,247Z" fill="#7edace" stroke="#7edace" fill-opacity="1" stroke-opacity="1"/><path d="M627,107L724,247L784,108Z" fill="#7fd1cc" stroke="#7fd1cc" fill-opacity="1" stroke-opacity="1"/><path d="M784,108L724,247L815,218Z" fill="#71c6c9" stroke="#71c6c9" fill-opacity="1" stroke-opacity="1"/><path d="M784,108L815,218L924,236Z" fill="#6fbdc7" stroke="#6fbdc7" fill-opacity="1" stroke-opacity="1"/><path d="M784,108L924,236L964,70Z" fill="#7ab9c5" stroke="#7ab9c5" fill-opacity="1" stroke-opacity="1"/><path d="M964,70L924,236L1111,227Z" fill="#6ba8bf" stroke="#6ba8bf" fill-opacity="1" stroke-opacity="1"/><path d="M964,70L1111,227L1183,107Z" fill="#719ebd" stroke="#719ebd" fill-opacity="1" stroke-opacity="1"/><path d="M1183,107L1111,227L1260,246Z" fill="#5d8db8" stroke="#5d8db8" fill-opacity="1" stroke-opacity="1"/><path d="M1183,107L1260,246L1319,18Z" fill="#6b87b7" stroke="#6b87b7" fill-opacity="1" stroke-opacity="1"/><path d="M1319,18L1260,246L1389,247Z" fill="#5e7fb1" stroke="#5e7fb1" fill-opacity="1" stroke-opacity="1"/><path d="M1319,18L1389,247L1477,68Z" fill="#6a80b1" stroke="#6a80b1" fill-opacity="1" stroke-opacity="1"/><path d="M1477,68L1389,247L1439,420Z" fill="#4476b0" stroke="#4476b0" fill-opacity="1" stroke-opacity="1"/><path d="M1477,68L1439,420L1449,528Z" fill="#266ab3" stroke="#266ab3" fill-opacity="1" stroke-opacity="1"/><path d="M-48,284L-124,577L-55,434Z" fill="#9bcbd4" stroke="#9bcbd4" fill-opacity="1" stroke-opacity="1"/><path d="M-48,284L-55,434L131,362Z" fill="#a1e2d7" stroke="#a1e2d7" fill-opacity="1" stroke-opacity="1"/><path d="M-48,284L131,362L105,170Z" fill="#b1efd5" stroke="#b1efd5" fill-opacity="1" stroke-opacity="1"/><path d="M105,170L131,362L212,256Z" fill="#a7ebd2" stroke="#a7ebd2" fill-opacity="1" stroke-opacity="1"/><path d="M212,256L131,362L212,425Z" fill="#89dcd2" stroke="#89dcd2" fill-opacity="1" stroke-opacity="1"/><path d="M212,256L212,425L401,357Z" fill="#7cd7cf" stroke="#7cd7cf" fill-opacity="1" stroke-opacity="1"/><path d="M212,256L401,357L418,275Z" fill="#7fdcce" stroke="#7fdcce" fill-opacity="1" stroke-opacity="1"/><path d="M418,275L401,357L560,331Z" fill="#65d3d2" stroke="#65d3d2" fill-opacity="1" stroke-opacity="1"/><path d="M418,275L560,331L578,166Z" fill="#73d7d0" stroke="#73d7d0" fill-opacity="1" stroke-opacity="1"/><path d="M578,166L560,331L724,247Z" fill="#66d2d2" stroke="#66d2d2" fill-opacity="1" stroke-opacity="1"/><path d="M724,247L560,331L696,331Z" fill="#4fc8d5" stroke="#4fc8d5" fill-opacity="1" stroke-opacity="1"/><path d="M724,247L696,331L815,218Z" fill="#58c1cf" stroke="#58c1cf" fill-opacity="1" stroke-opacity="1"/><path d="M815,218L696,331L832,425Z" fill="#42b5d1" stroke="#42b5d1" fill-opacity="1" stroke-opacity="1"/><path d="M815,218L832,425L932,332Z" fill="#3eaace" stroke="#3eaace" fill-opacity="1" stroke-opacity="1"/><path d="M815,218L932,332L924,236Z" fill="#53adc8" stroke="#53adc8" fill-opacity="1" stroke-opacity="1"/><path d="M924,236L932,332L1111,227Z" fill="#4ca0c5" stroke="#4ca0c5" fill-opacity="1" stroke-opacity="1"/><path d="M1111,227L932,332L1161,396Z" fill="#368ec4" stroke="#368ec4" fill-opacity="1" stroke-opacity="1"/><path d="M1111,227L1161,396L1260,246Z" fill="#3b83be" stroke="#3b83be" fill-opacity="1" stroke-opacity="1"/><path d="M1260,246L1161,396L1231,393Z" fill="#2973bd" stroke="#2973bd" fill-opacity="1" stroke-opacity="1"/><path d="M1260,246L1231,393L1389,247Z" fill="#3372b9" stroke="#3372b9" fill-opacity="1" stroke-opacity="1"/><path d="M1389,247L1231,393L1439,420Z" fill="#2465b6" stroke="#2465b6" fill-opacity="1" stroke-opacity="1"/><path d="M-55,434L-124,577L36,516Z" fill="#92b3cb" stroke="#92b3cb" fill-opacity="1" stroke-opacity="1"/><path d="M-55,434L36,516L131,362Z" fill="#94c7ce" stroke="#94c7ce" fill-opacity="1" stroke-opacity="1"/><path d="M131,362L36,516L212,425Z" fill="#88c3cc" stroke="#88c3cc" fill-opacity="1" stroke-opacity="1"/><path d="M212,425L36,516L239,685Z" fill="#769fbf" stroke="#769fbf" fill-opacity="1" stroke-opacity="1"/><path d="M212,425L239,685L285,467Z" fill="#6c9fbe" stroke="#6c9fbe" fill-opacity="1" stroke-opacity="1"/><path d="M212,425L285,467L401,357Z" fill="#70bfc7" stroke="#70bfc7" fill-opacity="1" stroke-opacity="1"/><path d="M401,357L285,467L419,473Z" fill="#65b6c6" stroke="#65b6c6" fill-opacity="1" stroke-opacity="1"/><path d="M401,357L419,473L560,331Z" fill="#5cbfcd" stroke="#5cbfcd" fill-opacity="1" stroke-opacity="1"/><path d="M560,331L419,473L617,532Z" fill="#4ba8c9" stroke="#4ba8c9" fill-opacity="1" stroke-opacity="1"/><path d="M560,331L617,532L696,331Z" fill="#42b3d0" stroke="#42b3d0" fill-opacity="1" stroke-opacity="1"/><path d="M696,331L617,532L832,425Z" fill="#389eca" stroke="#389eca" fill-opacity="1" stroke-opacity="1"/><path d="M832,425L617,532L792,583Z" fill="#2d7ec0" stroke="#2d7ec0" fill-opacity="1" stroke-opacity="1"/><path d="M832,425L792,583L1025,573Z" fill="#2567b8" stroke="#2567b8" fill-opacity="1" stroke-opacity="1"/><path d="M832,425L1025,573L932,332Z" fill="#2c7cbf" stroke="#2c7cbf" fill-opacity="1" stroke-opacity="1"/><path d="M932,332L1025,573L1069,544Z" fill="#2464b7" stroke="#2464b7" fill-opacity="1" stroke-opacity="1"/><path d="M932,332L1069,544L1161,396Z" fill="#2871bb" stroke="#2871bb" fill-opacity="1" stroke-opacity="1"/><path d="M1161,396L1069,544L1238,529Z" fill="#1c4eb0" stroke="#1c4eb0" fill-opacity="1" stroke-opacity="1"/><path d="M1161,396L1238,529L1231,393Z" fill="#1f56b3" stroke="#1f56b3" fill-opacity="1" stroke-opacity="1"/><path d="M1231,393L1238,529L1439,420Z" fill="#1a47ae" stroke="#1a47ae" fill-opacity="1" stroke-opacity="1"/><path d="M1439,420L1238,529L1449,528Z" fill="#1438a6" stroke="#1438a6" fill-opacity="1" stroke-opacity="1"/><path d="M-124,577L-56,791L-59,666Z" fill="#8080ba" stroke="#8080ba" fill-opacity="1" stroke-opacity="1"/><path d="M-124,577L-59,666L36,516Z" fill="#899ac3" stroke="#899ac3" fill-opacity="1" stroke-opacity="1"/><path d="M36,516L-59,666L53,727Z" fill="#8289bb" stroke="#8289bb" fill-opacity="1" stroke-opacity="1"/><path d="M36,516L53,727L239,685Z" fill="#7381b7" stroke="#7381b7" fill-opacity="1" stroke-opacity="1"/><path d="M285,467L239,685L374,629Z" fill="#5c86b5" stroke="#5c86b5" fill-opacity="1" stroke-opacity="1"/><path d="M285,467L374,629L419,473Z" fill="#5b9abc" stroke="#5b9abc" fill-opacity="1" stroke-opacity="1"/><path d="M419,473L374,629L529,581Z" fill="#4b89ba" stroke="#4b89ba" fill-opacity="1" stroke-opacity="1"/><path d="M419,473L529,581L617,532Z" fill="#438ec0" stroke="#438ec0" fill-opacity="1" stroke-opacity="1"/><path d="M529,581L374,629L507,690Z" fill="#3e70b3" stroke="#3e70b3" fill-opacity="1" stroke-opacity="1"/><path d="M529,581L507,690L652,653Z" fill="#3068b5" stroke="#3068b5" fill-opacity="1" stroke-opacity="1"/><path d="M529,581L652,653L617,532Z" fill="#3077bb" stroke="#3077bb" fill-opacity="1" stroke-opacity="1"/><path d="M617,532L652,653L792,583Z" fill="#286eba" stroke="#286eba" fill-opacity="1" stroke-opacity="1"/><path d="M792,583L652,653L798,615Z" fill="#225db5" stroke="#225db5" fill-opacity="1" stroke-opacity="1"/><path d="M792,583L798,615L1025,573Z" fill="#1f55b2" stroke="#1f55b2" fill-opacity="1" stroke-opacity="1"/><path d="M1025,573L798,615L1022,630Z" fill="#1945ad" stroke="#1945ad" fill-opacity="1" stroke-opacity="1"/><path d="M1025,573L1022,630L1069,544Z" fill="#1840ab" stroke="#1840ab" fill-opacity="1" stroke-opacity="1"/><path d="M1069,544L1022,630L1133,705Z" fill="#112da5" stroke="#112da5" fill-opacity="1" stroke-opacity="1"/><path d="M1069,544L1133,705L1238,529Z" fill="#112ea6" stroke="#112ea6" fill-opacity="1" stroke-opacity="1"/><path d="M1238,529L1133,705L1273,714Z" fill="#08139d" stroke="#08139d" fill-opacity="1" stroke-opacity="1"/><path d="M1238,529L1273,714L1449,528Z" fill="#09199f" stroke="#09199f" fill-opacity="1" stroke-opacity="1"/><path d="M1449,528L1273,714L1421,721Z" fill="#020595" stroke="#020595" fill-opacity="1" stroke-opacity="1"/><path d="M-59,666L-56,791L53,727Z" fill="#8080b3" stroke="#8080b3" fill-opacity="1" stroke-opacity="1"/><path d="M53,727L-56,791L108,879Z" fill="#7b7ea9" stroke="#7b7ea9" fill-opacity="1" stroke-opacity="1"/><path d="M53,727L108,879L172,848Z" fill="#6f79a5" stroke="#6f79a5" fill-opacity="1" stroke-opacity="1"/><path d="M53,727L172,848L239,685Z" fill="#6977a9" stroke="#6977a9" fill-opacity="1" stroke-opacity="1"/><path d="M239,685L172,848L317,793Z" fill="#5c72a4" stroke="#5c72a4" fill-opacity="1" stroke-opacity="1"/><path d="M239,685L317,793L374,629Z" fill="#526ea9" stroke="#526ea9" fill-opacity="1" stroke-opacity="1"/><path d="M374,629L317,793L507,690Z" fill="#4569aa" stroke="#4569aa" fill-opacity="1" stroke-opacity="1"/><path d="M507,690L317,793L481,874Z" fill="#4067a3" stroke="#4067a3" fill-opacity="1" stroke-opacity="1"/><path d="M507,690L481,874L673,794Z" fill="#2e60a6" stroke="#2e60a6" fill-opacity="1" stroke-opacity="1"/><path d="M507,690L673,794L652,653Z" fill="#255daf" stroke="#255daf" fill-opacity="1" stroke-opacity="1"/><path d="M652,653L673,794L798,615Z" fill="#1e52af" stroke="#1e52af" fill-opacity="1" stroke-opacity="1"/><path d="M798,615L673,794L876,884Z" fill="#1a48a4" stroke="#1a48a4" fill-opacity="1" stroke-opacity="1"/><path d="M798,615L876,884L996,855Z" fill="#15399d" stroke="#15399d" fill-opacity="1" stroke-opacity="1"/><path d="M798,615L996,855L1022,630Z" fill="#1232a4" stroke="#1232a4" fill-opacity="1" stroke-opacity="1"/><path d="M1022,630L996,855L1133,705Z" fill="#0d239c" stroke="#0d239c" fill-opacity="1" stroke-opacity="1"/><path d="M1133,705L996,855L1160,865Z" fill="#0b1d92" stroke="#0b1d92" fill-opacity="1" stroke-opacity="1"/><path d="M1133,705L1160,865L1262,811Z" fill="#061190" stroke="#061190" fill-opacity="1" stroke-opacity="1"/><path d="M1133,705L1262,811L1273,714Z" fill="#050c93" stroke="#050c93" fill-opacity="1" stroke-opacity="1"/><path d="M1273,714L1262,811L1379,808Z" fill="#01008c" stroke="#01008c" fill-opacity="1" stroke-opacity="1"/><path d="M1273,714L1379,808L1421,721Z" fill="#00008c" stroke="#00008c" fill-opacity="1" stroke-opacity="1"/><path d="M108,879L876,884L481,874Z" fill="#38649a" stroke="#38649a" fill-opacity="1" stroke-opacity="1"/><path d="M108,879L481,874L172,848Z" fill="#5b719a" stroke="#5b719a" fill-opacity="1" stroke-opacity="1"/><path d="M172,848L481,874L317,793Z" fill="#506d9a" stroke="#506d9a" fill-opacity="1" stroke-opacity="1"/><path d="M481,874L876,884L673,794Z" fill="#1f56a0" stroke="#1f56a0" fill-opacity="1" stroke-opacity="1"/><path d="M876,884L1160,865L996,855Z" fill="#0f298f" stroke="#0f298f" fill-opacity="1" stroke-opacity="1"/><path d="M1160,865L1379,808L1262,811Z" fill="#030588" stroke="#030588" fill-opacity="1" stroke-opacity="1"/></g><filter id="noise"><feTurbulence type="fractalNoise" in="fillPaint" fill="#F00" baseFrequency="0.7" numOctaves="10" stitchTiles="stitch"/><feComponentTransfer><feFuncR type="linear" slope="2" intercept="-.5"/><feFuncG type="linear" slope="2" intercept="-.5"/><feFuncB type="linear" slope="2" intercept="-.5"/></feComponentTransfer><feColorMatrix type="matrix" values="0.3333 0.3333 0.3333 0 0 
 0.3333 0.3333 0.3333 0 0 
 0.3333 0.3333 0.3333 0 0 
 0 0 0 1 0"/></filter><rect opacity="0.2" width="100%" height="100%" filter="url(#noise)"/></svg>